<svg width="32" height="32" viewBox="0 0 32 32" fill="none" xmlns="http://www.w3.org/2000/svg">
<path opacity="0.5" d="M7.6665 7.33301C7.6665 6.71417 7.91234 6.12068 8.34992 5.68309C8.78751 5.24551 9.381 4.99967 9.99984 4.99967C10.6187 4.99967 11.2122 5.24551 11.6498 5.68309C12.0873 6.12068 12.3332 6.71417 12.3332 7.33301C12.3332 7.95185 12.0873 8.54534 11.6498 8.98292C11.2122 9.42051 10.6187 9.66634 9.99984 9.66634C9.381 9.66634 8.78751 9.42051 8.34992 8.98292C7.91234 8.54534 7.6665 7.95185 7.6665 7.33301ZM9.99984 3.33301C9.47455 3.33301 8.95441 3.43647 8.4691 3.63749C7.9838 3.83851 7.54284 4.13315 7.17141 4.50458C6.79998 4.87602 6.50534 5.31697 6.30432 5.80227C6.1033 6.28758 5.99984 6.80772 5.99984 7.33301C5.99984 7.8583 6.1033 8.37844 6.30432 8.86374C6.50534 9.34904 6.79998 9.79 7.17141 10.1614C7.54284 10.5329 7.9838 10.8275 8.4691 11.0285C8.95441 11.2295 9.47455 11.333 9.99984 11.333C11.0607 11.333 12.0781 10.9116 12.8283 10.1614C13.5784 9.41129 13.9998 8.39387 13.9998 7.33301C13.9998 6.27214 13.5784 5.25473 12.8283 4.50458C12.0781 3.75444 11.0607 3.33301 9.99984 3.33301ZM19.6665 7.33301C19.6665 6.71417 19.9123 6.12068 20.3499 5.68309C20.7875 5.24551 21.381 4.99967 21.9998 4.99967C22.6187 4.99967 23.2122 5.24551 23.6498 5.68309C24.0873 6.12068 24.3332 6.71417 24.3332 7.33301C24.3332 7.95185 24.0873 8.54534 23.6498 8.98292C23.2122 9.42051 22.6187 9.66634 21.9998 9.66634C21.381 9.66634 20.7875 9.42051 20.3499 8.98292C19.9123 8.54534 19.6665 7.95185 19.6665 7.33301ZM21.9998 3.33301C21.4745 3.33301 20.9544 3.43647 20.4691 3.63749C19.9838 3.83851 19.5428 4.13315 19.1714 4.50458C18.8 4.87602 18.5053 5.31697 18.3043 5.80227C18.1033 6.28758 17.9998 6.80772 17.9998 7.33301C17.9998 7.8583 18.1033 8.37844 18.3043 8.86374C18.5053 9.34904 18.8 9.79 19.1714 10.1614C19.5428 10.5329 19.9838 10.8275 20.4691 11.0285C20.9544 11.2295 21.4745 11.333 21.9998 11.333C23.0607 11.333 24.0781 10.9116 24.8283 10.1614C25.5784 9.41129 25.9998 8.39387 25.9998 7.33301C25.9998 6.27214 25.5784 5.25473 24.8283 4.50458C24.0781 3.75444 23.0607 3.33301 21.9998 3.33301ZM2.6665 14.9637C2.6665 14.662 2.72593 14.3632 2.84138 14.0845C2.95683 13.8058 3.12605 13.5525 3.33938 13.3392C3.5527 13.1259 3.80596 12.9567 4.08469 12.8412C4.36341 12.7258 4.66215 12.6663 4.96384 12.6663H11.3798C11.0807 13.183 10.8711 13.7465 10.7598 14.333H4.96384C4.88102 14.333 4.79901 14.3493 4.72249 14.381C4.64598 14.4127 4.57645 14.4592 4.51789 14.5177C4.45933 14.5763 4.41287 14.6458 4.38118 14.7223C4.34948 14.7988 4.33317 14.8809 4.33317 14.9637V15.2497C4.33317 15.4297 4.33517 16.5383 5.0125 17.5863C5.60984 18.5117 6.82784 19.533 9.4685 19.6543C8.78067 19.9663 8.20668 20.4841 7.82584 21.1363C5.67784 20.715 4.3725 19.6677 3.6125 18.491C2.6665 17.0263 2.6665 15.513 2.6665 15.251V14.9643V14.9637ZM22.5312 19.6543C23.219 19.9663 23.793 20.4841 24.1738 21.1363C26.3218 20.715 27.6272 19.6677 28.3872 18.491C29.3332 17.0263 29.3332 15.513 29.3332 15.251V14.9643C29.3333 14.6626 29.2739 14.3638 29.1585 14.085C29.0431 13.8062 28.8739 13.5528 28.6605 13.3394C28.4472 13.1261 28.1939 12.9568 27.9151 12.8413C27.6364 12.7258 27.3376 12.6663 27.0358 12.6663H20.6198C20.9132 13.175 21.1265 13.7363 21.2398 14.333H27.0358C27.3838 14.333 27.6665 14.6157 27.6665 14.9637V15.2497C27.6665 15.4297 27.6645 16.5383 26.9872 17.5863C26.3898 18.5117 25.1718 19.533 22.5312 19.6543Z" fill="white"/>
<path d="M15.9998 12.3337C15.381 12.3337 14.7875 12.5795 14.3499 13.0171C13.9123 13.4547 13.6665 14.0482 13.6665 14.667C13.6665 15.2858 13.9123 15.8793 14.3499 16.3169C14.7875 16.7545 15.381 17.0003 15.9998 17.0003C16.6187 17.0003 17.2122 16.7545 17.6498 16.3169C18.0873 15.8793 18.3332 15.2858 18.3332 14.667C18.3332 14.0482 18.0873 13.4547 17.6498 13.0171C17.2122 12.5795 16.6187 12.3337 15.9998 12.3337ZM11.9998 14.667C11.9998 13.6061 12.4213 12.5887 13.1714 11.8386C13.9216 11.0884 14.939 10.667 15.9998 10.667C17.0607 10.667 18.0781 11.0884 18.8283 11.8386C19.5784 12.5887 19.9998 13.6061 19.9998 14.667C19.9998 15.7279 19.5784 16.7453 18.8283 17.4954C18.0781 18.2456 17.0607 18.667 15.9998 18.667C14.939 18.667 13.9216 18.2456 13.1714 17.4954C12.4213 16.7453 11.9998 15.7279 11.9998 14.667ZM8.6665 22.2977C8.6665 21.6884 8.90854 21.104 9.33938 20.6732C9.77021 20.2424 10.3545 20.0003 10.9638 20.0003H21.0358C21.6451 20.0003 22.2295 20.2424 22.6603 20.6732C23.0911 21.104 23.3332 21.6884 23.3332 22.2977V22.585C23.3332 22.8477 23.3332 24.3603 22.3872 25.825C21.3985 27.3557 19.4885 28.667 15.9998 28.667C12.5112 28.667 10.6012 27.3557 9.6125 25.825C8.6665 24.3603 8.6665 22.847 8.6665 22.585V22.2977ZM10.9638 21.667C10.7966 21.667 10.6362 21.7334 10.5179 21.8517C10.3996 21.97 10.3332 22.1304 10.3332 22.2977V22.5837C10.3332 22.7637 10.3352 23.8723 11.0125 24.9203C11.6485 25.9057 12.9885 27.0003 15.9998 27.0003C19.0112 27.0003 20.3512 25.9057 20.9872 24.9203C21.6645 23.8723 21.6665 22.7637 21.6665 22.5837V22.2977C21.6665 22.1304 21.6001 21.97 21.4818 21.8517C21.3635 21.7334 21.2031 21.667 21.0358 21.667H10.9638Z" fill="white"/>
</svg>
