<svg width="4" height="37" viewBox="0 0 4 37" fill="none" xmlns="http://www.w3.org/2000/svg">
<g clip-path="url(#clip0_102_941)">
<path d="M1.865 14.2333C1.37037 14.2333 0.896001 14.0367 0.546245 13.6866C0.19649 13.3365 0 12.8617 0 12.3667C0 11.8716 0.19649 11.3968 0.546245 11.0467C0.896001 10.6967 1.37037 10.5 1.865 10.5C2.35963 10.5 2.834 10.6967 3.18375 11.0467C3.53351 11.3968 3.73 11.8716 3.73 12.3667C3.73 12.8617 3.53351 13.3365 3.18375 13.6866C2.834 14.0367 2.35963 14.2333 1.865 14.2333ZM1.865 20.3667C1.37037 20.3667 0.896001 20.17 0.546245 19.8199C0.19649 19.4699 0 18.9951 0 18.5C0 18.0049 0.19649 17.5301 0.546245 17.1801C0.896001 16.83 1.37037 16.6333 1.865 16.6333C2.35963 16.6333 2.834 16.83 3.18375 17.1801C3.53351 17.5301 3.73 18.0049 3.73 18.5C3.73 18.9951 3.53351 19.4699 3.18375 19.8199C2.834 20.17 2.35963 20.3667 1.865 20.3667ZM0 24.6333C0 25.1284 0.19649 25.6032 0.546245 25.9533C0.896001 26.3033 1.37037 26.5 1.865 26.5C2.35963 26.5 2.834 26.3033 3.18375 25.9533C3.53351 25.6032 3.73 25.1284 3.73 24.6333C3.73 24.1383 3.53351 23.6635 3.18375 23.3134C2.834 22.9633 2.35963 22.7667 1.865 22.7667C1.37037 22.7667 0.896001 22.9633 0.546245 23.3134C0.19649 23.6635 0 24.1383 0 24.6333Z" fill="white"/>
</g>
<defs>
<clipPath id="clip0_102_941">
<rect width="4" height="16" fill="white" transform="translate(0 10.5)"/>
</clipPath>
</defs>
</svg>
