<svg width="23" height="15" viewBox="0 0 23 15" fill="none" xmlns="http://www.w3.org/2000/svg">
<g id="Group 10">
<path id="Vector" d="M10.0404 5.72054V3.71134C10.0404 3.23194 9.90339 2.72964 9.62939 2.31864C9.42439 2.02184 8.71639 1.29124 8.39639 1.06294C7.94039 0.743237 7.32339 0.560638 6.77539 0.560638H0.359375V14.2138H2.75739V8.82564H6.77539C7.32339 8.82564 7.91739 8.66584 8.39639 8.32334C8.71639 8.09504 9.42439 7.41004 9.62939 7.11324C9.90339 6.70224 10.0404 6.22284 10.0404 5.72054ZM7.6434 5.69774C7.6434 5.74334 7.62039 5.78904 7.62039 5.78904C7.43739 6.10864 6.98139 6.54244 6.77539 6.54244H2.75739V2.84374H6.77539C6.82139 2.84374 6.84437 2.84374 6.88937 2.84374C7.11837 2.86664 7.48339 3.32324 7.62039 3.57434C7.64339 3.62004 7.6434 3.73424 7.6434 3.73424V5.69774ZM22.3034 11.5654L19.9744 10.9489C19.9744 10.9489 19.4264 11.7937 18.9474 12.022C18.9014 12.0448 18.8554 12.0448 18.8334 12.0448H16.2304C16.2074 12.0448 16.0934 12.0448 16.0704 12.022C15.7284 11.8393 15.0204 11.2457 15.0204 10.9717C15.0204 10.9717 15.0204 4.05384 15.0204 4.03104C15.0204 3.98534 15.0204 3.82554 15.0434 3.77984C15.2714 3.41454 15.7734 2.93504 16.0704 2.77524C16.0704 2.77524 16.1164 2.75244 16.1614 2.75244H18.8554C18.8784 2.75244 18.9244 2.75244 18.9474 2.77524C19.2894 2.98074 19.9744 3.82554 19.9744 3.82554L22.3034 3.16344C22.0984 2.79814 22.0064 2.61544 21.8244 2.36434C21.2304 1.58804 20.2034 0.469238 18.9244 0.469238H16.0704C15.5684 0.469238 15.0204 0.674738 14.6544 0.880238C14.1754 1.15424 13.2624 2.13594 12.9884 2.52414C12.7144 2.93504 12.6224 3.36884 12.6224 3.80264V10.9946C12.6224 11.4284 12.7144 11.885 12.9884 12.296C13.2624 12.7069 14.1754 13.643 14.6544 13.917C15.0204 14.1453 15.5684 14.328 16.0704 14.328H18.9244C20.2034 14.328 21.2304 13.2321 21.8244 12.433C22.0064 12.1818 22.1204 11.9763 22.3034 11.5654Z" fill="white"/>
</g>
</svg>
