<svg width="16" height="17" viewBox="0 0 16 17" fill="none" xmlns="http://www.w3.org/2000/svg">
<g clip-path="url(#clip0_102_951)">
<path opacity="0.5" d="M12.7905 0.792735C12.978 0.605297 13.2322 0.5 13.4973 0.5C13.7624 0.5 14.0167 0.605297 14.2042 0.792735L15.7068 2.29547C15.8942 2.48297 15.9995 2.73723 15.9995 3.00235C15.9995 3.26747 15.8942 3.52173 15.7068 3.70923L14.2042 5.21197C14.0167 5.3994 13.7624 5.5047 13.4973 5.5047C13.2322 5.5047 12.978 5.3994 12.7905 5.21197L11.2869 3.70923C11.0994 3.52173 10.9941 3.26747 10.9941 3.00235C10.9941 2.73723 11.0994 2.48297 11.2869 2.29547L12.7905 0.792735Z" fill="white"/>
<path d="M2.49941 16.5H3.99905V12.5007H0V14.0004C0 14.6634 0.26333 15.2991 0.73206 15.7679C1.20079 16.2367 1.83652 16.5 2.49941 16.5ZM3.99905 7.50157V11.5009H0V7.50157H3.99905ZM8.99787 11.5009H4.99882V7.50157H8.99787V11.5009ZM4.99882 12.5007H8.99787V16.5H4.99882V12.5007ZM9.99763 7.50157V11.5009H13.9967V7.50157H9.99763ZM9.99763 12.5007H13.9967V14.0004C13.9967 14.6634 13.7334 15.2991 13.2646 15.7679C12.7959 16.2367 12.1602 16.5 11.4973 16.5H9.99763V12.5007ZM0 6.50175H3.99905V2.50244H2.49941C1.83652 2.50244 1.20079 2.76579 0.73206 3.23455C0.26333 3.70331 0 4.33908 0 5.00201V6.50175ZM4.99882 6.50175V2.50244H8.99787V6.50175H4.99882Z" fill="white"/>
</g>
<defs>
<clipPath id="clip0_102_951">
<rect width="16" height="16" fill="white" transform="translate(0 0.5)"/>
</clipPath>
</defs>
</svg>
