<svg width="71" height="15" viewBox="0 0 71 15" fill="none" xmlns="http://www.w3.org/2000/svg">
<path d="M44.6219 1.68688V0.363884C44.6219 0.337684 44.6109 0.312484 44.5929 0.293684C44.5749 0.274884 44.5499 0.263984 44.5239 0.263184H35.187C32.478 0.263184 31.1529 1.94138 31.1529 4.10068V10.6988C31.1529 12.0414 30.5149 13.0091 29.1689 13.0091H20.3919C20.3659 13.0091 20.3409 13.0194 20.3229 13.0378C20.3049 13.0562 20.2939 13.0811 20.2939 13.107V14.4328C20.2939 14.4595 20.3049 14.4851 20.3239 14.504C20.3429 14.5229 20.3679 14.5335 20.3949 14.5335H30.1929C32.9029 14.5335 34.2299 12.8693 34.2299 10.7016V4.09788C34.2299 2.75538 34.8679 1.78758 36.2119 1.78758H44.5349C44.5479 1.78758 44.5609 1.78498 44.5729 1.77988C44.5849 1.77478 44.5959 1.76728 44.6049 1.75788C44.614 1.74858 44.6209 1.73738 44.6259 1.72518C44.6309 1.71298 44.6329 1.69998 44.6329 1.68688" fill="white"/>
<path d="M16.9822 0.263184H0.100213C0.0732128 0.263184 0.0482136 0.273483 0.0292136 0.291683C0.0112136 0.309983 0.000214866 0.334883 -0.000785134 0.361183V1.68718C-0.000785134 1.70048 0.00221047 1.71368 0.00721047 1.72598C0.0122105 1.73818 0.0202136 1.74928 0.0292136 1.75848C0.0392136 1.76758 0.0512102 1.77468 0.0632102 1.77928C0.0762102 1.78388 0.0892117 1.78588 0.102212 1.78508H15.9662C17.3122 1.78508 17.9502 2.75578 17.9502 4.09868C17.9502 5.44148 17.3122 6.40938 15.9662 6.40938H3.41522C1.45722 6.40938 -0.000785134 8.04598 -0.000785134 10.2197V14.4327C-0.00178513 14.4461 0.00121865 14.4593 0.00621865 14.4717C0.0112187 14.4841 0.0182147 14.4954 0.0272147 14.5048C0.0372147 14.5142 0.0482113 14.5216 0.0612113 14.5266C0.0732113 14.5315 0.0862128 14.5338 0.100213 14.5334H2.95921C2.98621 14.5334 3.01121 14.5228 3.03021 14.504C3.04921 14.4851 3.0602 14.4594 3.0602 14.4327V10.2197C3.0602 8.87398 3.8352 7.93688 4.9482 7.93688H16.9792C19.6842 7.93688 21.0082 6.25828 21.0082 4.10148C21.0082 1.94458 19.6842 0.263184 16.9792 0.263184" fill="white"/>
<path d="M66.6483 11.4864H63.7953C63.7683 11.4864 63.7423 11.4758 63.7233 11.457C63.7033 11.4382 63.6923 11.4125 63.6913 11.3856V1.77985C63.6913 0.305251 62.6723 -0.178751 61.2403 0.705349L44.0743 11.2709C43.3983 11.6878 43.1723 12.1551 43.3363 12.5021C43.4763 12.8015 43.8473 13.0085 44.5903 13.0085H60.5363C60.5573 13.0102 60.5773 13.0184 60.5933 13.032C60.6093 13.0455 60.6203 13.0637 60.6263 13.0841V14.4299C60.6263 14.4569 60.6363 14.4829 60.6553 14.5022C60.6743 14.5215 60.6993 14.5328 60.7263 14.5335H63.5913C63.6183 14.5328 63.6433 14.5215 63.6623 14.5022C63.6813 14.4829 63.6913 14.4569 63.6913 14.4299V13.1093C63.6913 13.096 63.6943 13.0829 63.6993 13.0707C63.7043 13.0585 63.7113 13.0474 63.7213 13.038C63.7303 13.0287 63.7413 13.0213 63.7533 13.0162C63.7663 13.0111 63.7793 13.0085 63.7923 13.0085H66.6483C66.6753 13.0086 66.7013 12.998 66.7203 12.9792C66.7403 12.9604 66.7513 12.9348 66.7523 12.9078V11.5955C66.7513 11.5823 66.7483 11.5693 66.7433 11.5572C66.7373 11.5451 66.7303 11.5342 66.7203 11.5251C66.7113 11.516 66.6993 11.5088 66.6873 11.5041C66.6753 11.4994 66.6613 11.4972 66.6483 11.4976V11.4864ZM60.6283 11.3884C60.6293 11.4018 60.6263 11.4153 60.6223 11.4279C60.6173 11.4404 60.6093 11.4519 60.6003 11.4615C60.5913 11.4712 60.5793 11.4788 60.5673 11.484C60.5553 11.4893 60.5413 11.492 60.5283 11.492H47.1623C47.0563 11.492 46.9973 11.464 46.9833 11.4248C46.9693 11.3857 47.0003 11.3156 47.0813 11.2625L60.3833 3.05295C60.4753 2.99705 60.6283 3.00825 60.6283 3.19005V11.3884Z" fill="white"/>
<path d="M69.6121 12.1565C69.8471 12.1576 70.0761 12.2283 70.2711 12.3596C70.4661 12.4909 70.6171 12.6769 70.7061 12.8942C70.7951 13.1115 70.8181 13.3504 70.7721 13.5806C70.7251 13.8109 70.6111 14.0222 70.4451 14.1879C70.2781 14.3536 70.0671 14.4662 69.8361 14.5117C69.6061 14.5571 69.3671 14.5332 69.1501 14.4431C68.9331 14.3529 68.7481 14.2006 68.6171 14.0052C68.4871 13.8098 68.4171 13.5802 68.4171 13.3453C68.4121 13.1873 68.4401 13.03 68.4981 12.8831C68.5561 12.7362 68.6441 12.6028 68.7561 12.4913C68.8681 12.3798 69.0021 12.2926 69.1491 12.235C69.2961 12.1774 69.4541 12.1507 69.6121 12.1565ZM69.6121 14.3607C69.8121 14.3623 70.0091 14.3044 70.1761 14.1943C70.3441 14.0842 70.4751 13.9268 70.5531 13.7421C70.6311 13.5574 70.6531 13.3537 70.6151 13.1568C70.5771 12.9599 70.4811 12.7787 70.3401 12.6361C70.1991 12.4935 70.0191 12.3961 69.8231 12.356C69.6261 12.3159 69.4221 12.3351 69.2371 12.411C69.0511 12.487 68.8921 12.6163 68.7801 12.7826C68.6681 12.949 68.6081 13.1448 68.6081 13.3453C68.6021 13.4791 68.6241 13.6127 68.6731 13.7376C68.7211 13.8625 68.7951 13.9761 68.8891 14.0713C68.9831 14.1666 69.0961 14.2414 69.2201 14.2912C69.3451 14.341 69.4781 14.3646 69.6121 14.3607ZM69.1421 12.6544H69.6851C69.9391 12.6544 70.1241 12.7271 70.1241 13.0124C70.1281 13.0888 70.1051 13.1642 70.0591 13.2252C70.0131 13.2862 69.9471 13.3288 69.8721 13.3453C69.9621 13.3677 70.0231 13.4348 70.0681 13.5942C70.1131 13.7537 70.1631 13.8935 70.2021 14.025H69.9501C69.9171 13.9243 69.8721 13.7453 69.8441 13.6502C69.8021 13.4936 69.7571 13.4404 69.5501 13.4404H69.3881V14.025H69.1421V12.6544ZM69.3881 13.2726H69.6061C69.7801 13.2726 69.8861 13.2026 69.8861 13.046C69.8861 12.8894 69.7551 12.8306 69.6061 12.8306H69.3711L69.3881 13.2726Z" fill="white"/>
</svg>
