<svg width="106" height="24" viewBox="0 0 106 24" fill="none" xmlns="http://www.w3.org/2000/svg">
<path d="M65.2617 19.2732C66.2415 19.2732 67.1811 18.884 67.8739 18.1912C68.5667 17.4984 68.956 16.5587 68.956 15.5789V9.21969C68.956 8.92719 69.0136 8.63749 69.1256 8.36729C69.2377 8.09709 69.4019 7.85159 69.6088 7.64489C69.8158 7.43819 70.0615 7.27429 70.3318 7.16259C70.6022 7.05089 70.8919 6.99359 71.1844 6.99389H78.3547C78.3807 6.99319 78.4054 6.98239 78.4235 6.96379C78.4416 6.94519 78.4517 6.92019 78.4517 6.89419V5.62239C78.4517 5.60959 78.4492 5.59699 78.4443 5.58529C78.4395 5.57349 78.4323 5.56279 78.4233 5.55379C78.4143 5.54479 78.4036 5.53759 78.3919 5.53279C78.3801 5.52789 78.3675 5.52539 78.3547 5.52539H69.7158C69.2305 5.52499 68.7498 5.62029 68.3013 5.80579C67.8527 5.99129 67.4452 6.26339 67.1018 6.60649C66.7585 6.94949 66.4861 7.35689 66.3003 7.80529C66.1145 8.25369 66.0189 8.73429 66.0189 9.21969V15.5789C66.0192 15.8714 65.9619 16.1611 65.8502 16.4315C65.7385 16.7018 65.5746 16.9475 65.3679 17.1545C65.1612 17.3615 64.9157 17.5256 64.6455 17.6377C64.3753 17.7497 64.0856 17.8074 63.7931 17.8074H56.7225C56.6968 17.8074 56.6721 17.8176 56.6539 17.8358C56.6357 17.854 56.6255 17.8786 56.6255 17.9044V19.1762C56.6255 19.2019 56.6357 19.2266 56.6539 19.2448C56.6721 19.263 56.6968 19.2732 56.7225 19.2732H65.2617Z" fill="white"/>
<path d="M81.4102 10.6909V5.62239C81.4102 5.59669 81.4204 5.57199 81.4386 5.55379C81.4568 5.53559 81.4814 5.52539 81.5072 5.52539H101.03C101.055 5.52539 101.08 5.53549 101.099 5.55359C101.118 5.57169 101.129 5.59639 101.129 5.62239V6.89419C101.129 6.92049 101.118 6.94539 101.099 6.96399C101.081 6.98249 101.056 6.99319 101.03 6.99389H84.4416C84.4159 6.99389 84.3912 7.00409 84.373 7.02229C84.3548 7.04049 84.3446 7.06519 84.3446 7.09089V10.3918C84.3446 10.5308 84.372 10.6683 84.4252 10.7967C84.4785 10.925 84.5565 11.0416 84.6549 11.1397C84.7533 11.2378 84.87 11.3155 84.9985 11.3685C85.127 11.4214 85.2646 11.4485 85.4036 11.4481H97.7529C98.7537 11.5007 99.6961 11.9353 100.386 12.6622C101.076 13.3892 101.46 14.3531 101.46 15.3553C101.46 16.3574 101.076 17.3213 100.386 18.0483C99.6961 18.7753 98.7537 19.2098 97.7529 19.2624H81.5072C81.4944 19.2624 81.4818 19.2599 81.47 19.255C81.4583 19.2502 81.4476 19.243 81.4386 19.234C81.4296 19.225 81.4224 19.2143 81.4175 19.2025C81.4127 19.1908 81.4102 19.1782 81.4102 19.1654V17.8936C81.4102 17.8678 81.4204 17.8432 81.4386 17.825C81.4568 17.8068 81.4814 17.7966 81.5072 17.7966H96.2816C96.6096 17.8061 96.9361 17.7496 97.2418 17.6304C97.5475 17.5112 97.826 17.3317 98.0609 17.1027C98.2958 16.8736 98.4823 16.5997 98.6092 16.2971C98.736 15.9946 98.8008 15.6696 98.7995 15.3415C98.7983 15.0134 98.731 14.6889 98.6018 14.3873C98.4726 14.0857 98.284 13.8132 98.0474 13.586C97.8107 13.3588 97.5308 13.1815 97.2242 13.0646C96.9176 12.9478 96.5906 12.8938 96.2628 12.9059H83.6359C83.0456 12.9059 82.4795 12.6714 82.0621 12.254C81.6447 11.8366 81.4102 11.2704 81.4102 10.6801" fill="white"/>
<path d="M52.422 11.4481C52.9993 11.428 53.5462 11.1846 53.9474 10.7691C54.3487 10.3537 54.573 9.79859 54.573 9.22099C54.573 8.64339 54.3487 8.08839 53.9474 7.67289C53.5462 7.25739 52.9993 7.01399 52.422 6.99389H37.4427C37.4168 6.99319 37.3921 6.98239 37.374 6.96379C37.3559 6.94519 37.3457 6.92019 37.3457 6.89419V5.62239C37.3457 5.59669 37.356 5.57199 37.3742 5.55379C37.3924 5.53559 37.417 5.52539 37.4427 5.52539H53.8798C54.8427 5.55139 55.7574 5.95209 56.4292 6.64239C57.1011 7.33259 57.477 8.25779 57.477 9.22099C57.477 10.1842 57.1011 11.1094 56.4292 11.7997C55.7574 12.4899 54.8427 12.8907 53.8798 12.9167H42.5086C42.2161 12.9167 41.9264 12.9743 41.6562 13.0863C41.386 13.1984 41.1405 13.3625 40.9338 13.5695C40.7271 13.7765 40.5632 14.0222 40.4515 14.2925C40.3398 14.5629 40.2825 14.8526 40.2829 15.1451V19.187C40.2829 19.2 40.2803 19.2128 40.2752 19.2247C40.2702 19.2367 40.2628 19.2475 40.2535 19.2565C40.2442 19.2656 40.2332 19.2727 40.2211 19.2774C40.209 19.2821 40.1961 19.2843 40.1832 19.284H37.4427C37.417 19.284 37.3924 19.2738 37.3742 19.2556C37.356 19.2374 37.3457 19.2127 37.3457 19.187V15.1451C37.3457 14.1653 37.735 13.2256 38.4278 12.5328C39.1206 11.84 40.0603 11.4508 41.04 11.4508L52.422 11.4481Z" fill="white"/>
<path d="M103.652 17.9014H103.194V17.7451H104.288V17.9014H103.838V19.2729H103.652V17.9014Z" fill="white"/>
<path d="M105.244 19.1032H105.25L105.678 17.7451H105.999V19.2729H105.818V17.8879H105.813L105.36 19.2729H105.126L104.689 17.8879H104.684V19.2729H104.509V17.7451H104.824L105.244 19.1032Z" fill="white"/>
<path d="M11.0977 0.941406V22.323L15.9479 23.8562V5.93181C15.9479 5.08571 16.3225 4.52521 16.9288 4.71921C17.7183 4.93751 17.8719 5.71621 17.8719 6.55151V13.7111C20.8844 15.1689 23.2611 13.7111 23.2611 9.86321C23.2611 5.92911 21.868 4.17761 17.7749 2.76831C15.5902 2.03091 13.3642 1.42181 11.1084 0.944105" fill="white"/>
<path d="M16.8584 20.7301L24.635 17.9628C25.5135 17.6367 25.6482 17.1948 24.9368 16.9604C24.2255 16.726 22.924 16.7906 22.0347 17.1113L16.8584 18.9355V16.0227L17.1548 15.9257C18.3267 15.5469 19.5351 15.2922 20.7602 15.1658C23.028 14.933 25.3192 15.2044 27.4697 15.9607C29.7521 16.6856 30.0081 17.7445 29.4287 18.4802C28.8494 19.2158 27.4239 19.7358 27.4239 19.7358L16.8584 23.5298V20.7301Z" fill="white"/>
<path d="M2.22694 20.4361C-0.114669 19.784 -0.50269 18.4044 0.56437 17.6095C1.5479 16.882 3.22663 16.335 3.22663 16.335L10.1625 13.8613V16.6772L5.17482 18.4637C4.29369 18.779 4.15897 19.2236 4.87034 19.458C5.58171 19.6924 6.88051 19.6331 7.76434 19.3071L10.1625 18.4421V20.9562L9.6775 21.0343C7.18228 21.4436 4.62489 21.2383 2.22694 20.4361Z" fill="white"/>
<path d="M27.7902 21.5605C28.0164 21.5621 28.237 21.6306 28.4242 21.7575C28.6115 21.8843 28.757 22.0637 28.8425 22.2731C28.9279 22.4825 28.9494 22.7125 28.9043 22.9341C28.8592 23.1557 28.7495 23.359 28.5891 23.5183C28.4286 23.6777 28.2245 23.786 28.0026 23.8295C27.7807 23.873 27.5508 23.8499 27.342 23.763C27.1332 23.6761 26.9549 23.5293 26.8294 23.3411C26.7039 23.153 26.6369 22.9319 26.6369 22.7057C26.6316 22.5532 26.6578 22.4012 26.714 22.2594C26.7702 22.1175 26.8551 21.9887 26.9634 21.8812C27.0717 21.7736 27.201 21.6897 27.3433 21.6345C27.4856 21.5793 27.6377 21.5541 27.7902 21.5605ZM27.7902 23.6812C27.9835 23.6828 28.1729 23.6269 28.3343 23.5207C28.4958 23.4145 28.6221 23.2627 28.6972 23.0847C28.7722 22.9066 28.7927 22.7102 28.756 22.5204C28.7193 22.3307 28.627 22.1561 28.4909 22.0189C28.3548 21.8817 28.181 21.788 27.9916 21.7497C27.8022 21.7114 27.6056 21.7302 27.4269 21.8038C27.2482 21.8774 27.0954 22.0024 26.9878 22.163C26.8803 22.3236 26.8229 22.5125 26.8229 22.7057C26.818 22.8344 26.8396 22.9628 26.8864 23.0828C26.9332 23.2028 27.0042 23.3119 27.0949 23.4034C27.1856 23.4948 27.2941 23.5667 27.4137 23.6145C27.5333 23.6623 27.6615 23.685 27.7902 23.6812ZM27.3348 22.0402H27.8603C28.1028 22.0402 28.2806 22.1102 28.2806 22.3824C28.285 22.4563 28.2631 22.5293 28.2187 22.5885C28.1743 22.6477 28.1103 22.6893 28.0381 22.7057C28.1243 22.7273 28.1836 22.792 28.2267 22.9456C28.2699 23.0991 28.3184 23.2339 28.3561 23.3605H28.1136C28.0812 23.2608 28.0381 23.0911 28.0112 22.9994C27.9734 22.8459 27.9303 22.7973 27.7417 22.7973H27.5827V23.3605H27.3456L27.3348 22.0402ZM27.572 22.633H27.7848C27.9519 22.633 28.0543 22.5683 28.0543 22.4147C28.0543 22.2611 27.9303 22.2072 27.801 22.2072H27.572V22.633Z" fill="white"/>
</svg>
