<svg width="93" height="31" viewBox="0 0 93 31" fill="none" xmlns="http://www.w3.org/2000/svg">
<g id="Group 11">
<path id="Vector" fill-rule="evenodd" clip-rule="evenodd" d="M83.3842 30.3818H85.0822L92.7132 0.415527H90.9452L83.3842 30.3818ZM35.6452 30.3818L43.6232 0.415527H0.303223V30.3818H35.6452Z" fill="white"/>
<path id="Vector_2" d="M45.8311 9.51795V5.88855C45.8311 5.76895 45.854 5.65035 45.899 5.53975C45.945 5.42905 46.0111 5.32845 46.0961 5.24375C46.1801 5.15905 46.2811 5.09185 46.3911 5.04605C46.5021 5.00035 46.6201 4.97685 46.7401 4.97705H50.1911V5.94445H47.1501C47.1141 5.94365 47.0781 5.95045 47.0451 5.96435C47.0111 5.97835 46.9811 5.99905 46.9561 6.02535C46.9311 6.05035 46.9111 6.08015 46.8971 6.11295C46.8831 6.14575 46.8761 6.18105 46.8771 6.21665V9.18155C46.8761 9.21725 46.8831 9.25265 46.8961 9.28555C46.9101 9.31845 46.9301 9.34815 46.9561 9.37275C46.9811 9.39835 47.0111 9.41845 47.0441 9.43185C47.0781 9.44535 47.113 9.45185 47.149 9.45095H49.0361C49.0721 9.45185 49.1071 9.44535 49.1411 9.43185C49.1741 9.41845 49.2041 9.39835 49.2291 9.37275C49.2551 9.34825 49.2751 9.31855 49.2891 9.28565C49.3031 9.25275 49.3101 9.21735 49.3101 9.18155V8.16395H48.0071V7.19795H50.3691V9.51655C50.3711 9.63535 50.3481 9.75315 50.3021 9.86265C50.2561 9.97215 50.1881 10.0711 50.1031 10.1532C50.0191 10.2391 49.9191 10.3069 49.8081 10.3526C49.6971 10.3982 49.5781 10.4206 49.4581 10.4184H46.7381C46.4991 10.4188 46.2691 10.3243 46.0991 10.1555C45.9291 9.98675 45.8331 9.75755 45.8311 9.51795Z" fill="white"/>
<path id="Vector_3" d="M51.4111 10.4192V4.9751H55.2291V5.9425H52.4722V7.2212H54.6862V8.1871H52.4722V9.4547H55.2291V10.422L51.4111 10.4192Z" fill="white"/>
<path id="Vector_4" d="M55.9844 10.4192V4.9751H59.8024V5.9425H57.0454V7.2212H59.2604V8.1871H57.0454V10.4206L55.9844 10.4192Z" fill="white"/>
<path id="Vector_5" d="M60.4801 9.51677V5.88737C60.4781 5.76647 60.5001 5.64647 60.5461 5.53457C60.5921 5.42267 60.6601 5.32138 60.7461 5.23688C60.8281 5.15138 60.9271 5.08358 61.0361 5.03768C61.1461 4.99178 61.2631 4.96888 61.3821 4.97028H64.0971C64.2151 4.96908 64.3331 4.99208 64.4421 5.03788C64.5511 5.08378 64.6501 5.15148 64.7321 5.23688C64.8181 5.32048 64.8861 5.42077 64.9321 5.53177C64.9781 5.64267 65.0001 5.76177 64.9981 5.88177V9.51128C64.9991 9.63008 64.9761 9.74787 64.9311 9.85777C64.8861 9.96777 64.8201 10.0678 64.7361 10.152C64.6521 10.2362 64.5531 10.303 64.4431 10.3485C64.3331 10.3941 64.2151 10.4174 64.0971 10.4172H61.3751C61.2561 10.4172 61.1391 10.3939 61.0301 10.3486C60.9211 10.3034 60.8221 10.237 60.7381 10.1534C60.6551 10.0698 60.5891 9.97047 60.5441 9.86127C60.4991 9.75207 60.4751 9.63497 60.4761 9.51677H60.4801ZM61.5251 9.18038C61.5251 9.21608 61.5311 9.25148 61.5451 9.28438C61.5591 9.31728 61.5791 9.34707 61.6051 9.37168C61.6301 9.39717 61.6601 9.41727 61.6931 9.43068C61.7261 9.44418 61.7621 9.45068 61.7981 9.44978H63.6851C63.7211 9.45068 63.7561 9.44418 63.7891 9.43068C63.8221 9.41727 63.8521 9.39717 63.8781 9.37168C63.9031 9.34697 63.9241 9.31728 63.9371 9.28438C63.9511 9.25148 63.9581 9.21608 63.9571 9.18038V6.21827C63.9571 6.14447 63.9281 6.07378 63.8761 6.02138C63.8521 5.99458 63.8221 5.97327 63.7891 5.95877C63.7561 5.94437 63.7201 5.93717 63.6831 5.93767H61.7981C61.7611 5.93717 61.7251 5.94437 61.6921 5.95877C61.6591 5.97327 61.6291 5.99458 61.6051 6.02138C61.5541 6.07398 61.5251 6.14467 61.5251 6.21827V9.18038Z" fill="white"/>
<path id="Vector_6" d="M65.9702 10.4183V4.97424H69.2342C69.3542 4.97224 69.4732 4.99484 69.5832 5.04074C69.6942 5.08664 69.7942 5.15474 69.8772 5.24084C69.9632 5.32484 70.0302 5.42534 70.0762 5.53614C70.1222 5.64704 70.1442 5.76594 70.1432 5.88574V7.28724C70.1452 7.40714 70.1222 7.52614 70.0762 7.63694C70.0312 7.74784 69.9632 7.84824 69.8772 7.93214C69.7942 8.01864 69.6942 8.08704 69.5842 8.13314C69.4732 8.17924 69.3542 8.20204 69.2342 8.20024H69.1672L70.5012 10.4183H69.3622L68.0152 8.20024H67.0142V10.4183H65.9702ZM67.0142 7.23284H68.7932C68.8672 7.23284 68.9382 7.20344 68.9902 7.15104C69.0432 7.09864 69.0722 7.02764 69.0722 6.95364V6.21374C69.0722 6.14004 69.0432 6.06934 68.9912 6.01694C68.9672 5.99014 68.9372 5.96884 68.9042 5.95434C68.8712 5.93994 68.8352 5.93274 68.7982 5.93324H67.0142V7.23284Z" fill="white"/>
<path id="Vector_7" d="M71.1051 9.51707V5.88767C71.1031 5.76787 71.1261 5.64897 71.1711 5.53807C71.2171 5.42727 71.2841 5.32677 71.3701 5.24277C71.4531 5.15677 71.5531 5.08877 71.6641 5.04297C71.7751 4.99707 71.8941 4.97437 72.0131 4.97617H74.7351V5.94357H72.4241C72.3881 5.94287 72.3521 5.94977 72.3191 5.96367C72.2861 5.97757 72.2561 5.99837 72.2311 6.02447C72.2051 6.04917 72.1851 6.07887 72.1711 6.11177C72.1571 6.14467 72.1501 6.18007 72.1501 6.21577V9.18067C72.1491 9.21647 72.1561 9.25207 72.1701 9.28507C72.1841 9.31797 72.2051 9.34767 72.2311 9.37197C72.2561 9.39747 72.2861 9.41757 72.3191 9.43107C72.3521 9.44447 72.3881 9.45097 72.4241 9.45007H74.7351V10.4175H72.0131C71.7741 10.4183 71.543 10.3239 71.373 10.1551C71.203 9.98637 71.1061 9.75687 71.1051 9.51707Z" fill="white"/>
<path id="Vector_8" d="M75.6514 10.4192V4.9751H79.4694V5.9425H76.7124V7.2212H78.9274V8.1871H76.7124V9.4547H79.4694V10.422L75.6514 10.4192Z" fill="white"/>
<path id="Vector_9" d="M80.6583 4.97217C80.5413 4.97217 80.4273 5.00677 80.3303 5.07167C80.2333 5.13657 80.1573 5.22877 80.1133 5.33667C80.0683 5.44457 80.0563 5.56327 80.0793 5.67787C80.1023 5.79237 80.1583 5.89757 80.2413 5.98017C80.3233 6.06277 80.4283 6.11897 80.5433 6.14177C80.6573 6.16457 80.7763 6.15287 80.8843 6.10817C80.9923 6.06347 81.0842 5.98777 81.1492 5.89067C81.2142 5.79357 81.2493 5.67947 81.2493 5.56267C81.2483 5.40617 81.1863 5.25617 81.0753 5.14547C80.9653 5.03487 80.8153 4.97257 80.6583 4.97217ZM80.6583 6.07077C80.5583 6.07077 80.4593 6.04097 80.3763 5.98517C80.2923 5.92927 80.2273 5.84997 80.1893 5.75707C80.1503 5.66427 80.1403 5.56207 80.1603 5.46347C80.1793 5.36497 80.2283 5.27437 80.2993 5.20337C80.3703 5.13227 80.4603 5.08387 80.5593 5.06427C80.6583 5.04467 80.7603 5.05477 80.8533 5.09317C80.9453 5.13167 81.0252 5.19677 81.0812 5.28037C81.1362 5.36387 81.1663 5.46217 81.1663 5.56267C81.1663 5.69737 81.1133 5.82667 81.0173 5.92197C80.9223 6.01727 80.7933 6.07077 80.6583 6.07077ZM80.9373 5.42447C80.9393 5.38697 80.9322 5.34967 80.9172 5.31517C80.9022 5.28077 80.8802 5.24987 80.8522 5.22487C80.8242 5.19987 80.7912 5.18127 80.7552 5.17047C80.7192 5.15957 80.6813 5.15667 80.6443 5.16197H80.3763V5.88787H80.5303V5.68687H80.6692L80.8093 5.88787H80.9993L80.8193 5.64217C80.8563 5.61947 80.8863 5.58737 80.9073 5.54917C80.9273 5.51087 80.9383 5.46787 80.9373 5.42447ZM80.6462 5.53467H80.5312V5.31837H80.6462C80.7852 5.31837 80.7853 5.39787 80.7853 5.42447C80.7853 5.45097 80.7823 5.53467 80.6443 5.53467H80.6462Z" fill="white"/>
<path id="Vector_10" d="M45.8311 24.5062V11.4528H53.6481C53.9341 11.449 54.2181 11.5039 54.4821 11.6141C54.7471 11.7243 54.9851 11.8875 55.1841 12.0936C55.3891 12.2948 55.5511 12.5357 55.6611 12.8016C55.7701 13.0675 55.8241 13.3528 55.8191 13.6403V17.0031C55.8241 17.2905 55.7701 17.5758 55.6611 17.8417C55.5511 18.1076 55.3891 18.3485 55.1841 18.5497C54.9841 18.7564 54.7441 18.9198 54.4791 19.0298C54.2141 19.1398 53.9291 19.194 53.6411 19.1891H53.4881L56.6831 24.5062H53.9601L50.7321 19.1891H48.3351V24.5062H45.8311ZM48.3351 16.8732H52.5941C52.7681 16.8729 52.9341 16.8038 53.0571 16.6812C53.1801 16.5585 53.2501 16.3922 53.2501 16.2185V14.4429C53.2511 14.3554 53.235 14.2687 53.201 14.1877C53.168 14.1067 53.1201 14.0331 53.0581 13.9711C52.9991 13.9068 52.9271 13.8556 52.8481 13.821C52.7681 13.7863 52.6811 13.769 52.5941 13.7701H48.3351V16.8732Z" fill="white"/>
<path id="Vector_11" d="M57.6504 13.7335V11.4526H67.6664V13.7335H63.9294V24.5059H61.3874V13.7335H57.6504Z" fill="white"/>
<path id="Vector_12" d="M68.3213 24.5056L72.6483 17.9182L68.5743 11.4341H71.6353L74.2133 15.5549L76.8423 11.4341H79.6553L75.5342 17.6376L79.8782 24.5056H76.8243L73.9833 20.0484L71.1143 24.5056H68.3213Z" fill="white"/>
<path id="Vector_13" d="M32.0753 23.8879C32.0773 23.9495 32.0674 24.0108 32.0464 24.0685C32.0244 24.1262 31.9913 24.1789 31.9483 24.2234C31.9053 24.2679 31.8543 24.3032 31.7973 24.3274C31.7413 24.3516 31.6804 24.3639 31.6184 24.3638C31.5234 24.3674 31.4304 24.3428 31.3504 24.2929C31.2694 24.243 31.2063 24.1702 31.1673 24.0839C31.1283 23.9975 31.1163 23.9016 31.1323 23.8083C31.1493 23.7151 31.1923 23.6289 31.2583 23.5606C31.3233 23.4924 31.4083 23.4454 31.5003 23.4256C31.5933 23.4057 31.6894 23.4139 31.7774 23.4492C31.8654 23.4846 31.9404 23.5453 31.9934 23.6237C32.0464 23.7021 32.0743 23.7947 32.0753 23.8893V23.8879ZM32.2594 23.8879C32.2644 23.7596 32.2304 23.6325 32.1634 23.5234C32.0954 23.4143 31.9964 23.328 31.8794 23.2755C31.7624 23.223 31.6313 23.2068 31.5053 23.2289C31.3783 23.251 31.2613 23.3105 31.1693 23.3997C31.0763 23.4889 31.0134 23.6038 30.9864 23.7294C30.9604 23.8551 30.9714 23.9858 31.0194 24.1048C31.0684 24.2238 31.1513 24.3257 31.2573 24.3972C31.3643 24.4688 31.4904 24.5068 31.6184 24.5063C31.7024 24.5109 31.7854 24.4983 31.8634 24.4691C31.9424 24.44 32.0133 24.3949 32.0733 24.3368C32.1333 24.2788 32.1813 24.209 32.2133 24.1318C32.2453 24.0545 32.2604 23.9715 32.2594 23.8879ZM31.5124 23.941H31.5803L31.7393 24.2201H31.9143L31.7384 23.9284C31.7614 23.9297 31.7833 23.9261 31.8043 23.9178C31.8263 23.9096 31.8454 23.8969 31.8604 23.8806C31.8764 23.8643 31.8883 23.8447 31.8963 23.8233C31.9033 23.8019 31.9063 23.7792 31.9043 23.7566C31.9043 23.603 31.7983 23.5542 31.6253 23.5542H31.3634V24.2201H31.5124V23.941ZM31.5124 23.8278V23.6674H31.6143C31.6703 23.6674 31.7464 23.6672 31.7464 23.7398C31.7464 23.8124 31.7074 23.8278 31.6424 23.8278H31.5124Z" fill="black"/>
<path id="Vector_14" d="M27.9425 20.484L28.7425 22.6728H27.1135L27.9425 20.484ZM27.0855 19.6325L25.2415 24.3033H26.5475L26.8385 23.4783H29.0205L29.2995 24.3033H30.7125L28.8555 19.6311L27.0855 19.6325ZM23.3855 24.3047H24.7055V19.6311H23.3855V24.3047ZM14.2115 19.6311L13.1095 23.3359L12.0545 19.6311H10.6335L12.1415 24.3047H14.0395L15.5585 19.6311H14.2115ZM19.5505 20.6557H20.1175C20.9405 20.6557 21.4745 21.0256 21.4745 21.9846C21.4745 22.9436 20.9405 23.3136 20.1175 23.3136H19.5505V20.6557ZM18.2415 19.6381V24.3116H20.3815C21.5235 24.3116 21.8955 24.1232 22.2975 23.6974C22.5775 23.3987 22.7665 22.7426 22.7665 22.0223C22.7665 21.3648 22.6105 20.7785 22.3395 20.4142C21.8495 19.7609 21.1445 19.6339 20.0935 19.6339L18.2415 19.6381ZM5.72949 19.6381V24.3186H7.06152V20.7506H8.09253C8.43453 20.7506 8.67753 20.8358 8.84253 21.0117C9.05153 21.235 9.13751 21.5938 9.13751 22.2499V24.3047H10.4285V21.7194C10.4285 19.8726 9.25149 19.6255 8.09949 19.6255L5.72949 19.6381ZM16.1155 19.6381V24.3116H17.4355V19.6311L16.1155 19.6381Z" fill="black"/>
<path id="Vector_15" d="M9.27838 10.3272C9.88438 9.53412 10.6514 8.87783 11.5284 8.40133C12.4054 7.92483 13.3734 7.63873 14.3694 7.56193V6.64893C10.6124 6.95053 7.3584 10.1388 7.3584 10.1388C7.3584 10.1388 9.20138 15.4656 14.3694 15.9528V14.9868C10.5774 14.5038 9.27838 10.3272 9.27838 10.3272Z" fill="black"/>
<path id="Vector_16" d="M14.368 13.0574V13.9424C11.503 13.4315 10.707 10.4526 10.707 10.4526C11.693 9.46695 12.983 8.84285 14.368 8.68115V9.65825C13.169 9.51865 12.233 10.6355 12.233 10.6355C12.233 10.6355 12.757 12.5228 14.373 13.0658" fill="black"/>
<path id="Vector_17" d="M14.3682 4.97217V6.64727C14.4782 6.63887 14.5891 6.63187 14.7001 6.62777C18.9711 6.48817 21.7542 10.1315 21.7542 10.1315C21.7542 10.1315 18.5571 14.0178 15.2281 14.0178C14.9401 14.0179 14.6522 13.9926 14.3682 13.9424V14.9796C14.6062 15.0101 14.8452 15.0255 15.0842 15.0257C18.1832 15.0257 20.4241 13.4427 22.5941 11.5693C22.9551 11.8625 24.4271 12.5605 24.7321 12.8676C22.6671 14.5943 17.8591 15.9875 15.1331 15.9875C14.8711 15.9875 14.6181 15.9707 14.3701 15.947V17.4043H26.1481V4.97217H14.3682Z" fill="black"/>
<path id="Vector_18" d="M14.3682 8.67987V7.56306C14.4772 7.55476 14.5871 7.54916 14.7001 7.54496C17.7711 7.44866 19.7871 10.1847 19.7871 10.1847C19.7871 10.1847 17.6122 13.2027 15.2772 13.2027C14.9682 13.2059 14.6622 13.1587 14.3682 13.0631V9.65136C15.5652 9.79096 15.8051 10.3243 16.5241 11.522L18.1231 10.1749C18.1231 10.1749 16.9552 8.63936 14.9882 8.63936C14.7812 8.64066 14.5742 8.65277 14.3682 8.67567" fill="black"/>
</g>
</svg>
