<svg width="32" height="32" viewBox="0 0 32 32" fill="none" xmlns="http://www.w3.org/2000/svg">
<path d="M15.7037 4.85719C15.8249 4.80922 15.956 4.79159 16.0856 4.80585C16.2152 4.82011 16.3393 4.86582 16.4472 4.93901C16.5551 5.01219 16.6435 5.11063 16.7046 5.22576C16.7658 5.34089 16.7979 5.46923 16.7981 5.59959V6.08279L18.3949 5.45079C18.3713 5.07257 18.2585 4.7053 18.0657 4.37906C17.8729 4.05283 17.6055 3.77688 17.2856 3.57382C16.9656 3.37076 16.6021 3.24636 16.2248 3.21079C15.8475 3.17522 15.4672 3.2295 15.1149 3.36919L5.72611 7.08759C4.9809 7.38289 4.34161 7.89528 3.89113 8.55831C3.44065 9.22133 3.19976 10.0044 3.19971 10.806V19.9948C3.19976 20.3787 3.29192 20.757 3.46845 21.098C3.64497 21.4389 3.90072 21.7325 4.21421 21.9541C4.52769 22.1758 4.88978 22.319 5.27007 22.3717C5.65035 22.4244 6.03774 22.3852 6.39971 22.2572V20.5372L5.89411 20.7388C5.77276 20.7868 5.64152 20.8044 5.5118 20.7901C5.38209 20.7757 5.25786 20.7299 5.14994 20.6565C5.04201 20.5832 4.95368 20.4845 4.89263 20.3692C4.83159 20.2538 4.79968 20.1253 4.79971 19.9948V10.806C4.79994 10.325 4.94468 9.85525 5.21514 9.45755C5.4856 9.05985 5.86931 8.75258 6.31651 8.57559L15.7037 4.85719ZM20.5037 8.05719C20.625 8.00917 20.7563 7.99156 20.886 8.00589C21.0157 8.02023 21.14 8.06609 21.2479 8.13946C21.3558 8.21282 21.4441 8.31148 21.5052 8.42682C21.5662 8.54217 21.5981 8.67069 21.5981 8.80119V9.59799L23.1981 8.96439V8.80119C23.1982 8.40969 23.1025 8.02412 22.9193 7.67809C22.7362 7.33206 22.4712 7.03609 22.1474 6.81599C21.8236 6.59588 21.4509 6.45832 21.0618 6.4153C20.6727 6.37229 20.2789 6.42512 19.9149 6.56919L10.0221 10.4892C9.42601 10.7251 8.91451 11.1346 8.55391 11.6647C8.19331 12.1948 8.00024 12.8209 7.99971 13.462V23.1932C7.99954 23.5849 8.09524 23.9707 8.27846 24.3169C8.46169 24.6631 8.72687 24.9592 9.05085 25.1793C9.37484 25.3995 9.74778 25.537 10.1371 25.5798C10.5265 25.6227 10.9204 25.5696 11.2845 25.4252L12.7997 24.8252V23.1036L10.6941 23.9388C10.5728 23.9868 10.4415 24.0044 10.3118 23.9901C10.1821 23.9757 10.0579 23.9299 9.94994 23.8565C9.84201 23.7832 9.75368 23.6845 9.69263 23.5692C9.63159 23.4538 9.59968 23.3253 9.59971 23.1948V13.4636C9.59965 13.1428 9.69604 12.8293 9.87636 12.564C10.0567 12.2987 10.3126 12.0937 10.6109 11.9756L20.5037 8.05719ZM27.1997 11.9996C27.1997 11.8691 27.1678 11.7406 27.1068 11.6252C27.0457 11.5099 26.9574 11.4112 26.8495 11.3379C26.7416 11.2645 26.6173 11.2186 26.4876 11.2043C26.3579 11.19 26.2267 11.2076 26.1053 11.2556L16.5053 15.0572C16.3562 15.1162 16.2282 15.2187 16.138 15.3514C16.0479 15.4841 15.9997 15.6408 15.9997 15.8012V26.3996C15.9999 26.53 16.032 26.6583 16.0932 26.7734C16.1544 26.8886 16.2427 26.987 16.3506 27.0602C16.4585 27.1334 16.5826 27.1791 16.7122 27.1933C16.8418 27.2076 16.9729 27.19 17.0941 27.142L17.6269 26.9324C17.681 27.4698 17.8198 27.9952 18.0381 28.4892L17.6829 28.63C17.319 28.774 16.9254 28.8269 16.5364 28.7839C16.1474 28.741 15.7748 28.6036 15.4511 28.3836C15.1273 28.1637 14.8623 27.868 14.679 27.5222C14.4958 27.1763 14.3999 26.791 14.3997 26.3996V15.8012C14.3999 15.3202 14.5447 14.8505 14.8151 14.4528C15.0856 14.055 15.4693 13.7478 15.9165 13.5708L25.5165 9.76759C25.8805 9.62352 26.2743 9.57069 26.6634 9.6137C27.0525 9.65672 27.4252 9.79428 27.749 10.0144C28.0728 10.2345 28.3378 10.5305 28.5209 10.8765C28.7041 11.2225 28.7998 11.6081 28.7997 11.9996V16.5436C28.3891 15.9259 27.8416 15.4113 27.1997 15.0396V11.9996Z" fill="white"/>
<g opacity="0.5">
<path d="M27.4665 18.533C27.4665 19.3817 27.1294 20.1956 26.5292 20.7957C25.9291 21.3959 25.1152 21.733 24.2665 21.733C23.4178 21.733 22.6039 21.3959 22.0038 20.7957C21.4036 20.1956 21.0665 19.3817 21.0665 18.533C21.0665 17.6843 21.4036 16.8704 22.0038 16.2703C22.6039 15.6701 24.2665 15.333 24.2665 15.333C24.2665 15.333 25.9291 15.6701 26.5292 16.2703C27.1294 16.8704 27.4665 17.6843 27.4665 18.533ZM29.8665 25.733C29.8665 27.725 28.2665 29.733 24.2665 29.733C20.2665 29.733 18.6665 27.733 18.6665 25.733C18.6665 25.0965 18.9194 24.486 19.3694 24.036C19.8195 23.5859 20.43 23.333 21.0665 23.333H27.4665C28.103 23.333 28.7135 23.5859 29.1636 24.036C29.6136 24.486 29.8665 25.0965 29.8665 25.733Z" fill="white"/>
<path d="M24.2665 29.733C28.2665 29.733 29.8665 27.725 29.8665 25.733C29.8665 25.0965 29.6136 24.486 29.1636 24.036C28.7135 23.5859 28.103 23.333 27.4665 23.333H21.0665C20.43 23.333 19.8195 23.5859 19.3694 24.036C18.9194 24.486 18.6665 25.0965 18.6665 25.733C18.6665 27.733 20.2665 29.733 24.2665 29.733Z" fill="white"/>
</g>
</svg>
