<svg width="55" height="53" viewBox="0 0 55 53" fill="none" xmlns="http://www.w3.org/2000/svg">
<path d="M15.1951 40.9271H12.8091L8.70584 35.267L4.57347 40.9271H2.1875L7.48377 33.6415L2.62459 26.9365H5.01057L8.70584 32.016L12.4011 26.9365H14.7871L9.89884 33.6415L15.1951 40.9271ZM27.5912 36.9505C27.5912 38.1696 27.1842 39.1565 26.3691 39.8531C25.5541 40.5497 24.3902 40.9271 22.8774 40.9271H16.33V34.6864H13.1871L14.4964 32.8868H16.33V26.9365H22.6157C24.0413 26.9365 25.118 27.2848 25.8739 27.9524C26.6308 28.62 27.0087 29.5198 27.0087 30.5938C27.0087 31.929 26.3982 32.9739 25.1761 33.6415C25.9621 33.9318 26.5436 34.3962 26.9506 34.9477C27.3877 35.4992 27.5912 36.1958 27.5912 36.9505ZM18.4543 32.9159H22.4694C23.2844 32.9159 23.8959 32.7417 24.3029 32.3644C24.71 32.016 24.9145 31.4646 24.9145 30.7389C24.9145 30.1293 24.71 29.6359 24.2739 29.2876C23.8668 28.9393 23.2553 28.7651 22.4694 28.7651H18.4543V32.9159ZM25.4378 36.8924C25.4378 36.1668 25.2052 35.5863 24.7681 35.2379C24.332 34.8606 23.6624 34.6864 22.7902 34.6864H18.4543V39.0694H22.7611C23.6042 39.0694 24.2739 38.8662 24.7391 38.5179C25.2052 38.1406 25.4378 37.5891 25.4378 36.8924ZM42.0244 33.9318C42.0244 35.0057 41.879 36.0217 41.5592 36.8924C41.2384 37.7632 40.7732 38.5469 40.1617 39.2145C39.5221 39.8821 38.7943 40.4046 37.9793 40.7239C37.1652 41.0722 36.2339 41.2173 35.1862 41.2173C34.1677 41.2173 33.2073 41.0432 32.3922 40.7239C31.5782 40.3756 30.8504 39.8821 30.2098 39.2145C29.5702 38.5469 29.104 37.7632 28.7842 36.8924C28.4644 36.0217 28.319 35.0057 28.319 33.9318C28.319 32.8578 28.4644 31.8419 28.7842 30.9711C29.104 30.1003 29.5702 29.2876 30.2098 28.62C30.8213 27.9524 31.5491 27.4589 32.3922 27.1106C33.2073 26.7913 34.1677 26.6172 35.1862 26.6172C36.2048 26.6172 37.1361 26.7913 37.9793 27.1106C38.7943 27.4299 39.5512 27.9524 40.1617 28.62C40.7732 29.2876 41.2675 30.1003 41.5592 30.9711C41.8499 31.8419 42.0244 32.8288 42.0244 33.9318ZM30.5306 33.9318C30.5306 35.5863 30.9667 36.8924 31.8108 37.8503C32.6549 38.8082 33.7607 39.3016 35.1862 39.3016C36.5827 39.3016 37.7176 38.8082 38.5617 37.8503C39.4058 36.8924 39.8128 35.5863 39.8128 33.9318C39.8128 32.2773 39.4058 30.9421 38.5617 29.9842C37.7176 29.0264 36.5827 28.5329 35.1862 28.5329C33.7897 28.5329 32.6549 29.0264 31.8108 29.9842C30.9667 30.9711 30.5306 32.2773 30.5306 33.9318ZM48.7753 33.6415L53.6636 26.9365H51.2776L47.5823 32.016L43.887 26.9365H41.5001L46.3893 33.6415L41.0931 40.9271H43.479L47.5823 35.267L51.7147 40.9271H54.1007L48.7753 33.6415Z" fill="white"/>
<path d="M28.1439 9.34641C31.6647 12.0168 37.6306 18.5767 35.8261 20.4344C33.7599 22.234 31.0832 23.308 28.1439 23.308C25.2045 23.308 22.4987 22.234 20.4616 20.4344C18.629 18.5767 24.623 12.0168 28.1148 9.37544C28.1148 9.34641 28.1439 9.34641 28.1439 9.34641ZM34.2261 1.71254C32.4506 0.638575 30.5008 0 28.1439 0C25.7869 0 23.837 0.638575 22.0626 1.71254C22.0335 1.71254 22.0335 1.74157 22.0335 1.77059C22.0335 1.79962 22.0626 1.79962 22.0917 1.79962C24.3613 1.30618 27.795 3.25093 28.1148 3.45411H28.1439H28.1729C28.4927 3.25093 31.9273 1.30618 34.197 1.79962C34.2261 1.79962 34.2552 1.79962 34.2552 1.77059C34.2552 1.74157 34.2552 1.71254 34.2261 1.71254ZM19.9673 3.338C19.9383 3.338 19.9383 3.36703 19.9092 3.36703C17.7849 5.48594 16.4756 8.41757 16.4756 11.6395C16.4756 14.2808 17.3768 16.7481 18.8616 18.6928C18.8616 18.7218 18.8906 18.7218 18.9197 18.7218C18.9488 18.7218 18.9488 18.6928 18.9197 18.6638C18.0175 15.9063 22.5859 9.25933 24.9428 6.47282L24.9719 6.4438C24.9719 6.41477 24.9719 6.41477 24.9428 6.41477C21.3638 2.87359 20.1709 3.25093 19.9673 3.338ZM31.3449 6.38575L31.3158 6.41477C31.3158 6.41477 31.3158 6.4438 31.3449 6.4438C33.7018 9.23031 38.2412 15.8773 37.368 18.6348V18.6928C37.397 18.6928 37.4261 18.6928 37.4261 18.6638C38.9109 16.719 39.8131 14.2518 39.8131 11.6104C39.8131 8.38855 38.5028 5.45691 36.3494 3.338C36.3204 3.30898 36.3203 3.30898 36.2913 3.30898C36.1168 3.25093 34.9238 2.87359 31.3449 6.38575Z" fill="white"/>
<path d="M11.6193 47.282V46.5273H7.6333V52.1294H11.6193V51.3457H8.47743V49.6331H11.2704V48.9075H8.47743V47.282H11.6193Z" fill="white"/>
<path d="M4.89722 49.5186C4.60649 49.2574 4.14132 49.0542 3.50071 48.9381L3.00648 48.822C2.54031 48.7349 2.2205 48.5898 2.04606 48.4737C1.87062 48.3576 1.78341 48.1544 1.78341 47.8931C1.78341 47.6319 1.87063 47.4578 2.07514 47.3126C2.27865 47.1675 2.54029 47.1094 2.91824 47.1094C3.38441 47.1094 3.73329 47.1965 3.9368 47.3707C4.14132 47.5448 4.25761 47.8061 4.28668 48.1544H5.15886C5.15886 47.6029 4.95536 47.1675 4.57742 46.8482C4.19947 46.5289 3.64607 46.3838 2.91824 46.3838C2.30771 46.3838 1.81248 46.5289 1.46361 46.7902C1.11473 47.0514 0.940291 47.4287 0.940291 47.8931C0.940291 48.3576 1.08565 48.7059 1.37638 48.9671C1.66711 49.2283 2.10421 49.4315 2.68566 49.5476L3.15183 49.6637C3.617 49.7798 3.96587 49.8959 4.14131 50.0121C4.31575 50.1572 4.40297 50.3313 4.40297 50.5635C4.40297 50.8538 4.28668 51.086 4.08217 51.2602C3.84959 51.4053 3.52979 51.4924 3.12277 51.4924C2.62752 51.4924 2.24957 51.3763 1.98792 51.1731C1.72526 50.9699 1.60896 50.6506 1.60896 50.2443H0.794922C0.794922 50.8828 0.998433 51.3763 1.43453 51.7246C1.84155 52.0729 2.424 52.218 3.15183 52.218C3.82051 52.218 4.3739 52.0729 4.75185 51.7826C5.1298 51.4924 5.3343 51.057 5.3343 50.5635C5.3343 50.1282 5.18795 49.7798 4.89722 49.5186Z" fill="white"/>
<path d="M18.3698 51.4328L18.3116 50.562C18.3116 50.2427 18.2244 50.0105 18.1081 49.8073C17.9918 49.6331 17.7883 49.488 17.5257 49.43C17.8174 49.3429 18.05 49.1687 18.1954 48.9365C18.3698 48.7043 18.457 48.414 18.457 48.0657C18.457 47.5723 18.2826 47.1949 17.9337 46.9337C17.5848 46.6725 17.1186 46.5273 16.5081 46.5273H14.063V52.1294H14.9071V49.8363H16.5372C16.857 49.8363 17.0896 49.9234 17.2349 50.0685C17.3803 50.2137 17.4675 50.4749 17.4675 50.8232L17.4966 51.4328C17.4966 51.752 17.5547 51.9843 17.672 52.1584H18.5442C18.457 51.9552 18.3989 51.723 18.3698 51.4328ZM14.9362 47.253H16.4791C16.8279 47.253 17.1187 47.3401 17.2931 47.4852C17.4675 47.6303 17.5848 47.8625 17.5848 48.1528C17.5848 48.4431 17.4966 48.7043 17.3222 48.8494C17.1477 49.0236 16.8861 49.1107 16.5663 49.1107H14.9653V47.253H14.9362Z" fill="white"/>
<path d="M20.9897 46.5273H21.8329V52.1294H20.9897V46.5273Z" fill="white"/>
<path d="M28.6718 47.282V46.5273H24.6558V52.1294H28.6718V51.3457H25.4999V49.6331H28.2929V48.9075H25.4999V47.282H28.6718Z" fill="white"/>
<path d="M35.073 49.5186C34.7823 49.2574 34.3171 49.0542 33.6765 48.9381L33.1823 48.822C32.7161 48.7349 32.3963 48.5898 32.2219 48.4737C32.0474 48.3576 31.9602 48.1544 31.9602 47.8931C31.9602 47.6319 32.0474 47.4578 32.2509 47.3126C32.4545 47.1675 32.7161 47.1094 33.0951 47.1094C33.5602 47.1094 33.9091 47.1965 34.1136 47.3707C34.3171 47.5448 34.4334 47.8061 34.4625 48.1544H35.3066C35.3066 47.6029 35.1031 47.1675 34.7242 46.8482C34.3462 46.5289 33.7928 46.3838 33.066 46.3838C32.4545 46.3838 31.9602 46.5289 31.6103 46.7902C31.2615 47.0514 31.087 47.4287 31.087 47.8931C31.087 48.3576 31.2324 48.7059 31.5231 48.9671C31.8149 49.2283 32.251 49.4315 32.8324 49.5476L33.2986 49.6637C33.7638 49.7798 34.1136 49.8959 34.2881 50.0121C34.4625 50.1572 34.5497 50.3313 34.5497 50.5635C34.5497 50.8538 34.4334 51.086 34.2299 51.2602C33.9973 51.4053 33.6765 51.4924 33.2695 51.4924C32.7742 51.4924 32.3963 51.3763 32.1347 51.1731C31.873 50.9699 31.7567 50.6506 31.7567 50.2443H30.9126C30.9126 50.8828 31.1161 51.3763 31.5522 51.7246C31.9602 52.0729 32.5417 52.218 33.2695 52.218C33.9382 52.218 34.4916 52.0729 34.8695 51.7826C35.2485 51.4924 35.452 51.057 35.452 50.5635C35.5101 50.1282 35.3648 49.7798 35.073 49.5186Z" fill="white"/>
<path d="M54.4041 49.5186C54.1124 49.2574 53.6472 49.0542 53.0066 48.9381L52.5124 48.822C52.0472 48.7349 51.7264 48.5898 51.552 48.4737C51.3775 48.3576 51.2903 48.1544 51.2903 47.8931C51.2903 47.6319 51.3775 47.4578 51.5811 47.3126C51.7846 47.1675 52.0472 47.1094 52.4252 47.1094C52.8903 47.1094 53.2402 47.1965 53.4437 47.3707C53.6472 47.5448 53.7635 47.8061 53.7926 48.1544H54.6367C54.6367 47.6029 54.4332 47.1675 54.0542 46.8482C53.6763 46.5289 53.1239 46.3838 52.3961 46.3838C51.7846 46.3838 51.2903 46.5289 50.9414 46.7902C50.5916 47.0514 50.4171 47.4287 50.4171 47.8931C50.4171 48.3576 50.5625 48.7059 50.8542 48.9671C51.145 49.2283 51.581 49.4315 52.1635 49.5476L52.6287 49.6637C53.0948 49.7798 53.4437 49.8959 53.6181 50.0121C53.7926 50.1572 53.8798 50.3313 53.8798 50.5635C53.8798 50.8538 53.7635 51.086 53.56 51.2602C53.3274 51.4053 53.0066 51.4924 52.5996 51.4924C52.1054 51.4924 51.7264 51.3763 51.4648 51.1731C51.2031 50.9699 51.0868 50.6506 51.0868 50.2443H50.2427C50.2427 50.8828 50.4462 51.3763 50.8833 51.7246C51.2903 52.0729 51.8718 52.218 52.5996 52.218C53.2693 52.218 53.8217 52.0729 54.2006 51.7826C54.5786 51.4924 54.7821 51.057 54.7821 50.5635C54.8402 50.1282 54.6948 49.7798 54.4041 49.5186Z" fill="white"/>
<path d="M47.7949 45.8506V52.7977" stroke="white" stroke-width="0.356743"/>
<path d="M42.8425 49.1977L44.7924 46.5273H43.832L42.3483 48.5592L40.8937 46.5273H39.9332L41.8821 49.1977L39.7578 52.1294H40.7182L42.3483 49.8653L44.0065 52.1294H44.9669L42.8425 49.1977Z" fill="white"/>
</svg>
