<svg width="115" height="23" viewBox="0 0 115 23" fill="none" xmlns="http://www.w3.org/2000/svg">
<g id="Group 9">
<path id="Vector" d="M73.4466 18.3425L69.1126 12.4768L64.7836 18.3425H62.9976L68.2086 11.2539L63.4476 4.81299H65.2326L69.1126 10.0672L72.9916 4.81299H74.7726L70.0166 11.2539L75.2266 18.3425H73.4466ZM39.6666 18.338L34.4516 11.2539L39.2126 4.81299H37.4266L33.5476 10.0672L29.6726 4.81299H27.8916L32.6476 11.2539L27.4326 18.338H29.2186L33.5476 12.4723L37.8816 18.338H39.6666Z" fill="white"/>
<path id="Vector_2" d="M49.5879 11.7659C49.3199 11.5394 49.0209 11.3492 48.6979 11.1997C49.7019 10.6652 50.3289 9.62341 50.3289 8.49111C50.3289 7.62591 50.0109 4.80861 45.9179 4.80861H40.4079V10.6426H38.5719C38.3359 10.9506 37.7949 11.6934 37.5869 12.0014H40.4079V18.3381H45.9179C48.9019 18.3381 50.7559 16.8253 50.7559 14.3884C50.7599 13.324 50.3559 12.4226 49.5879 11.7659ZM41.9339 6.22181H45.9219C46.9989 6.22181 48.8069 6.489 48.8069 8.3733C48.8069 9.7956 47.7529 10.6426 45.9219 10.6426H41.9339V6.22181ZM45.9179 16.9295H41.9289V12.0059H45.9179C47.4309 12.0059 49.2389 12.4226 49.2389 14.3613C49.2389 16.5943 47.1579 16.9295 45.9179 16.9295ZM57.9289 4.5006C54.1179 4.5006 51.4509 7.40851 51.4509 11.5711C51.4509 15.7382 54.1129 18.6416 57.9289 18.6416C61.7359 18.6416 64.3929 15.7382 64.3929 11.5711C64.3929 7.40851 61.7359 4.5006 57.9289 4.5006ZM57.9289 17.2103C55.0259 17.2103 52.9909 14.8912 52.9909 11.5711C52.9909 8.25101 55.0259 5.93191 57.9289 5.93191C60.8269 5.93191 62.8529 8.25101 62.8529 11.5711C62.8529 14.8912 60.8269 17.2103 57.9289 17.2103ZM4.16994 3.3637L4.16094 3.3728C2.00294 5.4925 0.789945 8.38241 0.794945 11.399C0.789945 13.8675 1.60293 16.2682 3.10693 18.2294C3.12093 18.2476 3.14792 18.2611 3.16592 18.2476C3.18392 18.234 3.18892 18.2113 3.17992 18.1887C2.31692 15.5299 6.72293 9.0844 9.00393 6.3849C9.01293 6.3758 9.02193 6.36671 9.02193 6.35311C9.02193 6.33961 9.01292 6.32601 8.99892 6.31691C5.16492 2.51671 4.14294 3.3863 4.15594 3.3728L4.16994 3.3637ZM20.0519 3.3728C22.2089 5.488 23.4179 8.38241 23.4129 11.399C23.4179 13.8675 22.6049 16.2682 21.1009 18.2294C21.0869 18.2476 21.0599 18.2611 21.0419 18.2476C21.0239 18.234 21.0239 18.2113 21.0279 18.1887C21.8909 15.5299 17.4849 9.07991 15.2089 6.38031C15.1999 6.37131 15.1909 6.36221 15.1909 6.34861C15.1909 6.33051 15.1999 6.3214 15.2139 6.3124C19.0479 2.5122 20.0649 3.3863 20.0519 3.3728ZM12.1059 0.120605C14.3869 0.120605 16.2669 0.745706 17.9979 1.76931C18.0209 1.77841 18.0249 1.80561 18.0159 1.82371C18.0069 1.84181 17.9849 1.8463 17.9619 1.8418C15.7719 1.3707 12.4419 3.25501 12.1289 3.44521C12.1199 3.44981 12.1149 3.45431 12.1059 3.45431C12.0969 3.45431 12.0879 3.44981 12.0839 3.44521C11.2479 2.96511 8.17193 1.35711 6.23293 1.85541C6.20993 1.85991 6.18694 1.85541 6.17794 1.83731C6.16894 1.81461 6.17795 1.79201 6.19595 1.78291C7.92695 0.745706 9.82992 0.120605 12.1059 0.120605ZM12.1059 9.16601C12.1199 9.16601 12.1339 9.175 12.1429 9.1841C15.5269 11.7523 21.3189 18.0936 19.5519 19.8872L19.5559 19.8827V19.8872H19.5519C17.4889 21.69 14.8409 22.6819 12.1019 22.6774C9.36192 22.6819 6.71394 21.69 4.65594 19.8872C2.88894 18.0936 8.68093 11.7478 12.0649 9.1841C12.0739 9.175 12.0929 9.16601 12.1059 9.16601ZM101.562 4.8131V15.9149L93.3579 4.80411L92.0129 4.79951V18.32H93.5209V7.46291L101.562 18.3291L103.075 18.3336V4.8131H101.562ZM84.1769 4.49611C80.3659 4.49611 77.6989 7.404 77.6989 11.5666C77.6989 15.7337 80.3659 18.6416 84.1769 18.6416C87.9839 18.6416 90.6409 15.7337 90.6409 11.5666C90.6409 7.4085 87.9839 4.49611 84.1769 4.49611ZM84.1769 17.2103C81.2739 17.2103 79.2389 14.8912 79.2389 11.5666C79.2389 8.2465 81.2739 5.9274 84.1769 5.9274C87.0749 5.9274 89.1009 8.2465 89.1009 11.5666C89.0969 14.8867 87.0749 17.2103 84.1769 17.2103ZM106.291 17.0065V12.0059H113.755V10.6833H106.291V6.12671H114.263V4.80411H104.774V18.3291H114.359V17.0065H106.291Z" fill="white"/>
</g>
</svg>
