<svg width="32" height="32" fill="none" xmlns="http://www.w3.org/2000/svg"><path d="M10 17V20H12V17H20V20H22V17C22 16.4696 21.7893 15.9609 21.4142 15.5858C21.0391 15.2107 20.5304 15 20 15H12C11.4696 15 10.9609 15.2107 10.5858 15.5858C10.2107 15.9609 10 16.4696 10 17Z" fill="white"/><path fill-rule="evenodd" clip-rule="evenodd" d="M18.8284 12.8284C18.0783 13.5786 17.0609 14 16 14C14.9391 14 13.9217 13.5786 13.1716 12.8284C12.4214 12.0783 12 11.0609 12 10C12 8.93913 12.4214 7.92172 13.1716 7.17157C13.9217 6.42143 14.9391 6 16 6C17.0609 6 18.0783 6.42143 18.8284 7.17157C19.5786 7.92172 20 8.93913 20 10C20 11.0609 19.5786 12.0783 18.8284 12.8284ZM14.5858 11.4142C14.9609 11.7893 15.4696 12 16 12C16.5304 12 17.0391 11.7893 17.4142 11.4142C17.7893 11.0391 18 10.5304 18 10C18 9.46957 17.7893 8.96086 17.4142 8.58579C17.0391 8.21071 16.5304 8 16 8C15.4696 8 14.9609 8.21071 14.5858 8.58579C14.2107 8.96086 14 9.46957 14 10C14 10.5304 14.2107 11.0391 14.5858 11.4142Z" fill="white"/></svg>