<svg width="32" height="32" fill="none" xmlns="http://www.w3.org/2000/svg"><path d="M4.6665 7.66634C4.6665 7.57794 4.70162 7.49315 4.76413 7.43064C4.82665 7.36813 4.91143 7.33301 4.99984 7.33301H13.3332C14.2532 7.33301 14.9998 8.07968 14.9998 8.99968V20.945C15.3776 19.6272 16.0631 18.418 16.9998 17.417V8.99968C16.9998 8.07968 17.7465 7.33301 18.6665 7.33301H26.9998C27.0882 7.33301 27.173 7.36813 27.2355 7.43064C27.298 7.49315 27.3332 7.57794 27.3332 7.66634V15.6423C28.0647 16.0241 28.7381 16.5081 29.3332 17.0797V7.66634C29.3332 7.0475 29.0873 6.45401 28.6498 6.01643C28.2122 5.57884 27.6187 5.33301 26.9998 5.33301H18.6665C17.6158 5.33301 16.6678 5.77434 15.9998 6.48368C15.6575 6.11988 15.2443 5.83009 14.7857 5.63218C14.327 5.43428 13.8327 5.33246 13.3332 5.33301H4.99984C4.381 5.33301 3.78751 5.57884 3.34992 6.01643C2.91234 6.45401 2.6665 7.0475 2.6665 7.66634V24.333C2.6665 25.621 3.71184 26.6663 4.99984 26.6663H13.3332C13.9932 26.6663 14.6132 26.493 15.1465 26.1863C14.8974 25.4705 14.7436 24.725 14.6892 23.969C14.5351 24.1849 14.3316 24.3608 14.0957 24.4821C13.8599 24.6034 13.5984 24.6666 13.3332 24.6663H4.99984C4.91143 24.6663 4.82665 24.6312 4.76413 24.5687C4.70162 24.5062 4.6665 24.4214 4.6665 24.333V7.66634Z" fill="white"/><path opacity="0.5" d="M21.3428 22.6667C21.3961 20.78 21.6734 19.108 22.0801 17.8867C22.3081 17.2027 22.5654 16.696 22.8188 16.3747C23.0788 16.0453 23.2574 16 23.3334 16C23.4094 16 23.5894 16.0453 23.8481 16.3747C24.1014 16.696 24.3588 17.2013 24.5868 17.8867C24.9934 19.108 25.2708 20.78 25.3241 22.6667H21.3428ZM20.8148 17.4667C20.9588 17.036 21.1214 16.6373 21.3054 16.284C19.8859 16.6934 18.6231 17.5216 17.682 18.6604C16.7409 19.7992 16.1654 21.1955 16.0308 22.6667H20.0094C20.0628 20.6667 20.3561 18.8453 20.8148 17.4667ZM25.8521 17.4667C25.7197 17.0602 25.5556 16.6648 25.3614 16.284C26.7812 16.6931 28.0443 17.5213 28.9857 18.6601C29.927 19.7989 30.5027 21.1953 30.6374 22.6667H26.6574C26.6041 20.6667 26.3108 18.8453 25.8521 17.4667ZM26.6574 24H30.6374C30.5027 25.4714 29.927 26.8678 28.9857 28.0066C28.0443 29.1454 26.7812 29.9735 25.3614 30.3827C25.5454 30.0293 25.7081 29.6307 25.8521 29.2013C26.3121 27.8213 26.6041 26.0013 26.6574 24ZM23.8481 30.292C23.5894 30.6213 23.4094 30.6667 23.3334 30.6667C23.2574 30.6667 23.0788 30.6213 22.8188 30.292C22.5654 29.9707 22.3081 29.4653 22.0801 28.7787C21.6734 27.5587 21.3961 25.8853 21.3428 24H25.3241C25.2708 25.8867 24.9934 27.5587 24.5868 28.7787C24.3588 29.464 24.1014 29.9707 23.8481 30.292ZM16.0308 24C16.1654 25.4712 16.7409 26.8675 17.682 28.0063C18.6231 29.1451 19.8859 29.9733 21.3054 30.3827C21.1117 30.0023 20.9481 29.6073 20.8161 29.2013C20.3548 27.8213 20.0628 26.0013 20.0094 24H16.0308Z" fill="white"/></svg>