<svg width="82" height="91" fill="none" xmlns="http://www.w3.org/2000/svg"><path d="M39.512 58H18.2C11.252 58 5.6 52.348 5.6 45.4C5.6 38.452 11.252 32.8 18.2 32.8H39.512C44.228 32.8 48.512 35.428 50.708 39.604H47.072C45.272 37.264 42.5 35.86 39.512 35.86H18.2C12.944 35.86 8.66 40.144 8.66 45.4C8.66 50.656 12.944 54.94 18.2 54.94H39.512C44.228 54.94 48.188 51.448 48.908 46.948H15.428V43.852H52.112V45.4C52.112 52.348 46.46 58 39.512 58Z" fill="white"/><path d="M42 22.75L25.9101 13.5989C15.2438 7.53241 2 15.236 2 27.5068V63.4932C2 75.764 15.2438 83.4676 25.9101 77.4011L58.0147 59.1416C68.6979 53.0656 68.8261 37.7134 58.2459 31.4598L56.7368 30.5679" stroke="#7DF7FA" stroke-width="3"/></svg>