<svg width="18" height="18" fill="none" xmlns="http://www.w3.org/2000/svg"><path d="M5.625 8.71875C5.625 8.29606 5.79291 7.89068 6.0918 7.5918C6.39069 7.29291 6.79606 7.125 7.21875 7.125H10.7812C11.2039 7.125 11.6093 7.29291 11.9082 7.5918C12.2071 7.89068 12.375 8.29606 12.375 8.71875V12.75C12.375 13.6451 12.0194 14.5035 11.3865 15.1365C10.7535 15.7694 9.89511 16.125 9 16.125C8.10489 16.125 7.24645 15.7694 6.61351 15.1365C5.98058 14.5035 5.625 13.6451 5.625 12.75V8.71875ZM9 15.1875C9.64647 15.1875 10.2665 14.9307 10.7236 14.4736C11.1807 14.0165 11.4375 13.3965 11.4375 12.75V8.71875C11.4375 8.5447 11.3684 8.37778 11.2453 8.25471C11.1222 8.13164 10.9553 8.0625 10.7812 8.0625H7.21875C7.0447 8.0625 6.87778 8.13164 6.75471 8.25471C6.63164 8.37778 6.5625 8.5447 6.5625 8.71875V12.75C6.5625 13.3965 6.81931 14.0165 7.27643 14.4736C7.73355 14.9307 8.35353 15.1875 9 15.1875ZM4.125 14.0625C4.4386 14.063 4.74607 13.9757 5.01262 13.8105C5.09475 14.1202 5.21213 14.4154 5.35988 14.6918C4.95988 14.905 4.51147 15.011 4.05833 14.9995C3.60519 14.988 3.16275 14.8593 2.77409 14.6261C2.38544 14.3928 2.06381 14.0628 1.84054 13.6684C1.61726 13.2739 1.49994 12.8283 1.5 12.375V8.71912C1.49995 8.5098 1.54114 8.30251 1.62121 8.10911C1.70128 7.9157 1.81867 7.73996 1.96667 7.59193C2.11466 7.4439 2.29037 7.32647 2.48376 7.24635C2.67715 7.16624 2.88442 7.125 3.09375 7.125H5.15625C5.26425 7.125 5.37 7.13588 5.47162 7.15613C5.23808 7.41679 5.06598 7.72651 4.968 8.0625H3.09375C2.9197 8.0625 2.75278 8.13164 2.62971 8.25471C2.50664 8.37778 2.4375 8.5447 2.4375 8.71875V12.375C2.4375 12.8226 2.61529 13.2518 2.93176 13.5682C3.24822 13.8847 3.67745 14.0625 4.125 14.0625ZM13.875 15C13.4443 15.0007 13.0201 14.8949 12.6401 14.6921C12.7879 14.4154 12.9053 14.1202 12.9874 13.8105C13.243 13.9686 13.5362 14.0556 13.8367 14.0624C14.1372 14.0692 14.4341 13.9956 14.6967 13.8493C14.9592 13.7029 15.1779 13.4891 15.3301 13.2299C15.4823 12.9707 15.5626 12.6756 15.5625 12.375V8.71875C15.5625 8.5447 15.4934 8.37778 15.3703 8.25471C15.2472 8.13164 15.0803 8.0625 14.9062 8.0625H13.032C12.9339 7.72648 12.7617 7.41675 12.528 7.15613C12.6304 7.13588 12.7358 7.125 12.8438 7.125H14.9062C15.3289 7.125 15.7343 7.29291 16.0332 7.5918C16.3321 7.89068 16.5 8.29606 16.5 8.71875V12.375C16.5 13.0712 16.2234 13.7389 15.7312 14.2312C15.2389 14.7234 14.5712 15 13.875 15Z" fill="white"/><path opacity="0.5" d="M9 2.8125C8.82764 2.8125 8.65697 2.84645 8.49773 2.91241C8.33849 2.97837 8.1938 3.07505 8.07192 3.19692C7.95005 3.3188 7.85337 3.46349 7.78741 3.62273C7.72145 3.78197 7.6875 3.95264 7.6875 4.125C7.6875 4.29736 7.72145 4.46803 7.78741 4.62727C7.85337 4.78651 7.95005 4.9312 8.07192 5.05308C8.1938 5.17495 8.33849 5.27163 8.49773 5.33759C8.65697 5.40355 8.82764 5.4375 9 5.4375C9.3481 5.4375 9.68194 5.29922 9.92808 5.05308C10.1742 4.80694 10.3125 4.4731 10.3125 4.125C10.3125 3.7769 10.1742 3.44306 9.92808 3.19692C9.68194 2.95078 9.3481 2.8125 9 2.8125ZM6.75 4.125C6.75 3.52826 6.98705 2.95597 7.40901 2.53401C7.83097 2.11205 8.40326 1.875 9 1.875C9.59674 1.875 10.169 2.11205 10.591 2.53401C11.0129 2.95597 11.25 3.52826 11.25 4.125C11.25 4.72174 11.0129 5.29403 10.591 5.71599C10.169 6.13795 9.59674 6.375 9 6.375C8.40326 6.375 7.83097 6.13795 7.40901 5.71599C6.98705 5.29403 6.75 4.72174 6.75 4.125ZM13.875 3.5625C13.6264 3.5625 13.3879 3.66127 13.2121 3.83709C13.0363 4.0129 12.9375 4.25136 12.9375 4.5C12.9375 4.74864 13.0363 4.9871 13.2121 5.16291C13.3879 5.33873 13.6264 5.4375 13.875 5.4375C14.1236 5.4375 14.3621 5.33873 14.5379 5.16291C14.7137 4.9871 14.8125 4.74864 14.8125 4.5C14.8125 4.25136 14.7137 4.0129 14.5379 3.83709C14.3621 3.66127 14.1236 3.5625 13.875 3.5625ZM12 4.5C12 4.00272 12.1975 3.52581 12.5492 3.17417C12.9008 2.82254 13.3777 2.625 13.875 2.625C14.3723 2.625 14.8492 2.82254 15.2008 3.17417C15.5525 3.52581 15.75 4.00272 15.75 4.5C15.75 4.99728 15.5525 5.47419 15.2008 5.82583C14.8492 6.17746 14.3723 6.375 13.875 6.375C13.3777 6.375 12.9008 6.17746 12.5492 5.82583C12.1975 5.47419 12 4.99728 12 4.5ZM3.1875 4.5C3.1875 4.25136 3.28627 4.0129 3.46209 3.83709C3.6379 3.66127 3.87636 3.5625 4.125 3.5625C4.37364 3.5625 4.6121 3.66127 4.78791 3.83709C4.96373 4.0129 5.0625 4.25136 5.0625 4.5C5.0625 4.74864 4.96373 4.9871 4.78791 5.16291C4.6121 5.33873 4.37364 5.4375 4.125 5.4375C3.87636 5.4375 3.6379 5.33873 3.46209 5.16291C3.28627 4.9871 3.1875 4.74864 3.1875 4.5ZM4.125 2.625C3.62772 2.625 3.15081 2.82254 2.79917 3.17417C2.44754 3.52581 2.25 4.00272 2.25 4.5C2.25 4.99728 2.44754 5.47419 2.79917 5.82583C3.15081 6.17746 3.62772 6.375 4.125 6.375C4.62228 6.375 5.09919 6.17746 5.45083 5.82583C5.80246 5.47419 6 4.99728 6 4.5C6 4.00272 5.80246 3.52581 5.45083 3.17417C5.09919 2.82254 4.62228 2.625 4.125 2.625Z" fill="white"/></svg>