<svg width="36" height="36" fill="none" xmlns="http://www.w3.org/2000/svg"><g id="Group 12"><path id="Vector" fill-rule="evenodd" clip-rule="evenodd" d="M25.6474 23.5822C25.0234 23.5822 24.7774 23.2112 24.7774 23.2112C24.7434 23.0387 24.6854 20.5738 24.6654 18.1046C24.6434 15.5473 24.6654 12.9884 24.7904 12.9806C25.5114 11.6278 27.8094 8.89886 27.8094 8.89886C23.5144 9.74606 21.1714 12.5605 21.1714 12.5605C20.4814 12.0152 19.0694 12.1058 19.0694 12.1058C19.7304 12.4699 20.3904 13.5285 20.3904 14.4059V23.0335C20.3904 23.0335 18.9534 24.3001 17.8424 24.3001C17.5914 24.3018 17.3444 24.2434 17.1204 24.1298C16.8974 24.0161 16.7044 23.8505 16.5584 23.6469C16.4704 23.5315 16.3964 23.4054 16.3404 23.2716V12.6209C16.1864 12.7333 16.0014 12.7959 15.8114 12.8003C15.5754 12.8003 15.3304 12.6813 15.1644 12.3327C15.0394 12.0739 14.9594 11.6787 14.9594 11.1076C14.9594 9.14136 17.1814 7.83936 17.1814 7.83936C14.3574 8.59606 11.7464 10.049 8.26038 14.0427C4.77538 18.0364 5.43739 21.3356 5.43739 21.3356C5.43739 21.3356 6.3984 19.0657 8.7104 16.6767C9.8064 15.5439 10.6254 15.1651 11.1844 15.1643C11.8054 15.1643 12.1054 15.6267 12.1054 16.0408V24.1508C12.1054 24.9506 11.5874 25.1257 11.1144 25.1171C10.8484 25.1068 10.5844 25.0568 10.3324 24.9687C12.7064 28.4197 18.3824 28.902 18.3824 28.902L20.8754 26.2387L20.9334 26.2887L23.2184 28.236C27.3934 25.7547 29.4054 21.1553 29.4054 21.1553C27.5454 23.1258 26.3554 23.5857 25.6474 23.5822Z" fill="white"/><path id="Vector_2" fill-rule="evenodd" clip-rule="evenodd" d="M18.0474 1.68806C20.2284 1.68366 22.3874 2.11426 24.3994 2.95466C26.4114 3.79506 28.2353 5.02846 29.7643 6.58256C32.8743 9.72936 34.6174 13.975 34.6174 18.3989C34.6174 22.8228 32.8743 27.0685 29.7643 30.2153C28.2323 31.7661 26.4084 32.9973 24.3974 33.8377C22.3854 34.678 20.2274 35.1107 18.0474 35.1107C15.8674 35.1107 13.7094 34.678 11.6984 33.8377C9.68736 32.9973 7.86238 31.7661 6.33038 30.2153C3.22038 27.0687 1.47638 22.823 1.47638 18.3989C1.47638 13.9749 3.22038 9.72916 6.33038 6.58256C7.85938 5.02846 9.68437 3.79506 11.6954 2.95466C13.7074 2.11426 15.8674 1.68366 18.0474 1.68806ZM18.0474 0.918457C8.47836 0.918457 0.713379 8.74456 0.713379 18.3989C0.713379 28.0532 8.47836 35.8793 18.0474 35.8793C27.6164 35.8793 35.3804 28.0532 35.3804 18.3989C35.3804 8.74456 27.6204 0.918457 18.0474 0.918457Z" fill="white"/></g></svg>